<?xml version="1.0" encoding="utf-8"?>
<svg width="276px" height="36px" viewBox="0 0 276 36" version="1.1" xmlns="http://www.w3.org/2000/svg">
  <title>Logo</title>
  <desc>Created with Sketch.</desc>
  <g id="Page-1" stroke="none" stroke-width="1" fill="none" fill-rule="evenodd">
    <g id="Home" transform="translate(-250.000000, -50.000000)" fill="#FFFFFF" fill-rule="nonzero">
      <g id="Logo" transform="translate(250.000000, 50.000000)">
        <g id="noun_Running_1473810" transform="translate(224.890323, 0.000000)">
          <g id="Group">
            <path d="M17.6410822,30.9272727 C17.6410822,30.4363636 17.3113424,30.1090909 16.8167326,30.1090909 L2.47304891,30.1090909 C1.97843913,30.1090909 1.64869927,30.4363636 1.64869927,30.9272727 C1.64869927,31.4181818 1.97843913,31.7454545 2.47304891,31.7454545 L16.8167326,31.7454545 C17.3113424,31.7454545 17.6410822,31.3363636 17.6410822,30.9272727 Z" id="Path"/>
            <path d="M5.77044745,34.2 L4.12174818,34.2 C3.6271384,34.2 3.29739854,34.5272727 3.29739854,35.0181818 C3.29739854,35.5090909 3.6271384,35.8363636 4.12174818,35.8363636 L5.77044745,35.8363636 C6.26505723,35.8363636 6.59479709,35.5090909 6.59479709,35.0181818 C6.59479709,34.5272727 6.26505723,34.2 5.77044745,34.2 Z" id="Path"/>
            <path d="M9.64489074,26.8363636 C9.64489074,26.3454545 9.31515088,26.0181818 8.8205411,26.0181818 L0.824349636,26.0181818 C0.329739854,26.0181818 0,26.3454545 0,26.8363636 C0,27.3272727 0.329739854,27.6545455 0.824349636,27.6545455 L8.8205411,27.6545455 C9.31515088,27.6545455 9.64489074,27.2454545 9.64489074,26.8363636 Z" id="Path"/>
            <path d="M50.6150676,28.2272727 C50.3677627,27.7363636 49.873153,27.3272727 49.3785432,27.0818182 L43.113486,24.7090909 L43.113486,24.7090909 L43.113486,24.7090909 L40.5580021,23.8090909 C39.8160874,23.4818182 39.1566077,22.9909091 38.7444329,22.3363636 L36.6011238,18.8181818 C37.0132986,18.7363636 37.2606035,18.4090909 37.2606035,18 C37.2606035,17.5090909 36.9308637,17.1818182 36.4362539,17.1818182 L35.6119043,17.1818182 L34.6226847,15.5454545 C35.0348595,15.4636364 35.2821644,15.1363636 35.2821644,14.7272727 C35.2821644,14.2363636 34.9524246,13.9090909 34.4578148,13.9090909 L33.6334651,13.9090909 L32.8091155,12.6 C33.1388554,12.5181818 33.3861602,12.1909091 33.3861602,11.8636364 C33.3861602,11.3727273 33.0564204,11.0454545 32.5618106,11.0454545 L31.8198959,11.0454545 L30.7482414,9.32727273 C30.7482414,9.32727273 30.7482414,9.24545455 30.6658065,9.24545455 C29.6765869,8.1 28.3576275,7.52727273 26.9562331,7.69090909 C25.7197086,7.85454545 24.7304891,8.59090909 24.3183143,9.49090909 C24.2358793,9.73636364 24.2358793,9.98181818 24.4007492,10.2272727 L31.2428512,21.8454545 C31.3252862,22.0090909 31.4901561,22.1727273 31.655026,22.1727273 L40.0633923,25.3636364 L40.1458273,25.3636364 L42.6188762,26.2636364 L42.6188762,26.2636364 L42.6188762,26.2636364 L42.6188762,26.2636364 L42.6188762,26.2636364 L42.6188762,26.2636364 L48.8014984,28.6363636 C48.9663684,28.7181818 49.1312383,28.8 49.2136733,29.0454545 C49.5434131,29.7 49.5434131,30.3545455 49.1312383,31.0090909 L35.6943392,31.0090909 C34.8699896,31.0090909 34.04564,30.7636364 33.3861602,30.2727273 L10.3868054,13.3363636 C10.3868054,13.3363636 10.7165453,13.1727273 11.1287201,12.6 C11.5408949,12.0272727 11.7057648,11.2909091 11.7057648,10.5545455 L10.9638502,3.68181818 L11.9530697,2.12727273 C12.2003746,1.8 12.6949844,1.71818182 13.0247242,1.96363636 C13.2720291,2.20909091 14.2612487,3.02727273 16.6518626,6.87272727 C17.8883871,8.67272727 19.8668262,9.98181818 22.0925702,10.3090909 C22.5047451,10.3909091 22.9993548,10.0636364 23.0817898,9.65454545 C23.1642248,9.24545455 22.8344849,8.75454545 22.4223101,8.67272727 C20.6911759,8.34545455 19.0424766,7.36363636 18.053257,5.89090909 C15.1680333,1.47272727 14.3436837,0.818181818 14.0139438,0.572727273 C12.9422893,-0.163636364 11.4584599,0.0818181818 10.6341103,1.14545455 L5.60557752,9.08181818 C5.27583767,9.57272727 5.19340271,10.1454545 5.27583767,10.7181818 C4.78122789,10.8818182 4.28661811,11.1272727 4.03931322,11.6181818 L2.7203538,13.6636364 C1.97843913,14.7272727 2.30817898,16.2 3.37983351,16.9363636 C4.12174818,17.5090909 5.68801249,18.4909091 7.99619147,19.9636364 C8.16106139,20.0454545 8.32593132,20.1272727 8.40836629,20.1272727 C8.65567118,20.1272727 8.90297607,19.9636364 9.06784599,19.7181818 C9.31515088,19.3090909 9.23271592,18.8181818 8.8205411,18.5727273 C6.59479709,17.1 5.02853278,16.1181818 4.28661811,15.5454545 C3.95687825,15.3 3.87444329,14.8909091 4.12174818,14.4818182 L5.35827263,12.6 C5.60557752,12.2727273 6.1001873,12.1909091 6.42992716,12.4363636 L6.42992716,12.4363636 L32.3145057,31.5818182 C33.3037253,32.3181818 34.4578148,32.6454545 35.6119043,32.6454545 L46.9879292,32.6454545 C45.256795,33.4636364 42.8661811,34.2 40.805307,34.2 L40.805307,34.2 L37.9200832,34.2 L35.5294693,34.2 L35.5294693,34.2 C34.1280749,34.2 32.7266805,33.7909091 31.5725911,33.0545455 C26.7913632,30.0272727 17.8883871,24.3818182 11.376025,20.2090909 C10.9638502,19.9636364 10.4692404,20.0454545 10.2219355,20.4545455 C9.97463059,20.8636364 10.0570656,21.3545455 10.4692404,21.6 C16.8167326,25.6909091 25.4724037,31.1727273 30.3360666,34.2818182 L9.06784599,34.2818182 C8.57323621,34.2818182 8.24349636,34.6090909 8.24349636,35.1 C8.24349636,35.5909091 8.57323621,35.9181818 9.06784599,35.9181818 L35.5294693,35.9181818 L35.5294693,35.9181818 L37.9200832,35.9181818 L40.722872,35.9181818 L40.722872,35.9181818 C44.1027055,35.9181818 48.9663684,34.1181818 50.2028928,32.4 C51.2745473,30.9272727 51.3569823,29.5363636 50.6150676,28.2272727 Z M32.3969407,20.8636364 L25.9670135,9.98181818 C26.2143184,9.73636364 26.6264932,9.49090909 27.121103,9.40909091 C27.6157128,9.32727273 28.5224974,9.40909091 29.346847,10.3090909 L29.8414568,11.1272727 L29.0995421,11.1272727 C28.6049324,11.1272727 28.2751925,11.4545455 28.2751925,11.9454545 C28.2751925,12.4363636 28.6049324,12.7636364 29.0995421,12.7636364 L30.8306764,12.7636364 L31.655026,14.0727273 L30.9955463,14.0727273 C30.5009365,14.0727273 30.1711967,14.4 30.1711967,14.8909091 C30.1711967,15.3818182 30.5009365,15.7090909 30.9955463,15.7090909 L32.6442456,15.7090909 L33.6334651,17.2636364 L32.9739854,17.2636364 C32.4793757,17.2636364 32.1496358,17.5909091 32.1496358,18.0818182 C32.1496358,18.5727273 32.4793757,18.9 32.9739854,18.9 L34.6226847,18.9 L36.9308637,22.5 L32.3969407,20.8636364 Z M7.0069719,9.98181818 L9.56245578,5.97272727 L10.0570656,10.7181818 C10.0570656,11.0454545 9.97463059,11.3727273 9.80976067,11.6181818 C9.64489074,11.8636364 9.31515088,12.5181818 8.57323621,11.9454545 C8.57323621,11.9454545 8.16106139,11.7 7.41914672,11.1272727 C6.92453694,10.7181818 6.84210198,10.3090909 7.0069719,9.98181818 Z" id="Shape"/>
          </g>
        </g>
      </g>
    </g>
  </g>
  <path d="M 7.694 23.442 L 11.049 23.442 C 12.276 23.442 13.385 23.267 14.377 22.916 C 15.368 22.566 16.216 22.076 16.921 21.447 C 17.615 20.829 18.152 20.092 18.533 19.236 C 18.914 18.38 19.107 17.447 19.113 16.437 C 19.119 15.355 18.936 14.37 18.564 13.484 C 18.193 12.597 17.663 11.834 16.976 11.195 C 16.278 10.566 15.436 10.074 14.448 9.718 C 13.46 9.363 12.353 9.185 11.126 9.185 L 3.425 9.185 L 3.304 31.699 L 7.649 31.699 L 7.694 23.442 Z M 7.713 19.916 L 7.752 12.71 L 11.107 12.71 C 11.726 12.71 12.261 12.808 12.714 13.004 C 13.166 13.2 13.546 13.468 13.854 13.808 C 14.151 14.148 14.373 14.545 14.52 14.999 C 14.667 15.453 14.739 15.942 14.736 16.468 C 14.734 16.922 14.657 17.357 14.505 17.775 C 14.353 18.192 14.127 18.561 13.826 18.88 C 13.515 19.2 13.133 19.452 12.678 19.638 C 12.223 19.823 11.687 19.916 11.068 19.916 L 7.713 19.916 Z M 23.1 9.185 L 23.081 12.695 L 27.365 12.695 L 27.281 28.205 L 22.998 28.205 L 22.979 31.699 L 35.999 31.699 L 36.018 28.205 L 31.626 28.205 L 31.71 12.695 L 36.102 12.695 L 36.121 9.185 L 23.1 9.185 Z M 55.868 31.699 L 55.99 9.185 L 51.629 9.185 L 51.536 23.643 L 45.397 9.185 L 41.021 9.185 L 40.9 31.699 L 45.276 31.699 L 45.354 17.179 L 51.539 31.699 L 55.868 31.699 Z M 61.107 9.185 L 61.088 12.695 L 65.371 12.695 L 65.288 28.205 L 61.004 28.205 L 60.985 31.699 L 74.006 31.699 L 74.025 28.205 L 69.633 28.205 L 69.717 12.695 L 74.108 12.695 L 74.127 9.185 L 61.107 9.185 Z M 90.127 26.998 L 91.416 31.699 L 95.993 31.699 L 88.878 9.185 L 84.935 9.185 L 77.437 31.699 L 82.014 31.699 L 83.37 26.998 L 90.127 26.998 Z M 84.456 23.303 L 86.867 15.014 L 89.126 23.303 L 84.456 23.303 Z M 114.673 12.726 L 114.692 9.185 L 96.538 9.185 L 96.519 12.726 L 103.369 12.726 L 103.267 31.699 L 107.627 31.699 L 107.73 12.726 L 114.673 12.726 Z M 128.75 25.823 C 128.748 26.225 128.663 26.594 128.496 26.929 C 128.33 27.264 128.091 27.55 127.781 27.787 C 127.47 28.024 127.09 28.21 126.641 28.344 C 126.192 28.478 125.679 28.545 125.101 28.545 C 124.452 28.545 123.857 28.473 123.316 28.328 C 122.776 28.184 122.316 27.957 121.936 27.648 C 121.546 27.339 121.244 26.942 121.03 26.457 C 120.816 25.973 120.701 25.39 120.684 24.71 L 116.416 24.71 C 116.41 25.875 116.628 26.89 117.072 27.756 C 117.516 28.622 118.123 29.375 118.892 30.014 C 119.703 30.663 120.657 31.155 121.753 31.49 C 122.849 31.826 123.959 31.993 125.083 31.993 C 126.227 31.993 127.284 31.856 128.255 31.583 C 129.225 31.31 130.063 30.905 130.767 30.369 C 131.47 29.844 132.023 29.197 132.424 28.429 C 132.825 27.661 133.028 26.782 133.033 25.792 C 133.04 24.648 132.782 23.638 132.261 22.761 C 131.74 21.885 131.038 21.117 130.155 20.457 C 129.57 20.055 128.927 19.7 128.228 19.391 C 127.529 19.081 126.793 18.818 126.021 18.602 C 125.3 18.406 124.655 18.195 124.084 17.968 C 123.513 17.741 123.027 17.489 122.626 17.21 C 122.226 16.942 121.921 16.638 121.711 16.298 C 121.502 15.958 121.398 15.576 121.4 15.154 C 121.403 14.752 121.484 14.378 121.646 14.032 C 121.808 13.687 122.044 13.386 122.355 13.128 C 122.665 12.88 123.045 12.687 123.494 12.548 C 123.944 12.409 124.457 12.339 125.034 12.339 C 125.663 12.339 126.211 12.424 126.68 12.594 C 127.148 12.765 127.541 12.999 127.859 13.298 C 128.166 13.607 128.399 13.973 128.556 14.396 C 128.714 14.819 128.802 15.282 128.82 15.788 L 133.057 15.788 C 133.062 14.777 132.871 13.85 132.484 13.004 C 132.097 12.159 131.554 11.427 130.857 10.808 C 130.159 10.2 129.324 9.726 128.352 9.386 C 127.379 9.046 126.305 8.876 125.13 8.876 C 123.996 8.876 122.944 9.022 121.973 9.316 C 121.002 9.61 120.16 10.03 119.446 10.576 C 118.731 11.123 118.171 11.783 117.765 12.556 C 117.359 13.329 117.153 14.19 117.148 15.138 C 117.144 15.963 117.291 16.726 117.592 17.427 C 117.892 18.128 118.34 18.767 118.935 19.344 C 119.529 19.921 120.297 20.452 121.238 20.937 C 122.178 21.421 123.272 21.834 124.517 22.174 C 125.32 22.39 125.991 22.625 126.531 22.877 C 127.071 23.13 127.51 23.406 127.849 23.705 C 128.177 24.014 128.41 24.344 128.547 24.694 C 128.684 25.045 128.752 25.421 128.75 25.823 Z M 150.891 31.699 L 151.013 9.185 L 146.714 9.185 L 146.664 18.416 L 140.293 18.416 L 140.343 9.185 L 136.029 9.185 L 135.907 31.699 L 140.222 31.699 L 140.274 21.942 L 146.645 21.942 L 146.593 31.699 L 150.891 31.699 Z M 170.797 22.097 L 170.815 18.818 C 170.82 17.798 170.73 16.834 170.544 15.927 C 170.358 15.02 170.087 14.185 169.73 13.422 C 169.404 12.752 169.013 12.138 168.557 11.582 C 168.102 11.025 167.571 10.551 166.965 10.159 C 166.359 9.747 165.677 9.43 164.921 9.208 C 164.164 8.986 163.353 8.876 162.487 8.876 C 161.631 8.876 160.837 8.984 160.104 9.2 C 159.371 9.417 158.709 9.726 158.12 10.128 C 157.519 10.54 156.988 11.035 156.527 11.613 C 156.065 12.19 155.672 12.834 155.349 13.545 C 155.015 14.298 154.76 15.118 154.585 16.004 C 154.41 16.891 154.32 17.829 154.315 18.818 L 154.297 22.097 C 154.292 23.024 154.362 23.906 154.507 24.741 C 154.652 25.576 154.867 26.349 155.152 27.06 C 155.467 27.833 155.86 28.527 156.331 29.14 C 156.802 29.753 157.336 30.277 157.931 30.71 C 158.537 31.122 159.211 31.442 159.952 31.668 C 160.693 31.895 161.501 32.008 162.378 32.008 C 163.202 32.008 163.974 31.908 164.691 31.707 C 165.409 31.506 166.067 31.225 166.667 30.864 C 167.329 30.452 167.92 29.936 168.439 29.318 C 168.957 28.699 169.394 28.019 169.748 27.277 C 170.082 26.535 170.339 25.728 170.519 24.857 C 170.699 23.986 170.792 23.066 170.797 22.097 Z M 166.408 18.787 L 166.39 22.097 C 166.387 22.653 166.356 23.189 166.296 23.705 C 166.237 24.22 166.149 24.694 166.033 25.127 C 165.886 25.684 165.69 26.181 165.445 26.62 C 165.201 27.058 164.902 27.421 164.55 27.71 C 164.271 27.947 163.95 28.127 163.589 28.251 C 163.227 28.375 162.83 28.436 162.397 28.436 C 161.943 28.436 161.539 28.369 161.184 28.235 C 160.829 28.101 160.513 27.911 160.236 27.663 C 159.939 27.385 159.68 27.022 159.461 26.573 C 159.242 26.125 159.077 25.627 158.967 25.081 C 158.866 24.648 158.796 24.179 158.758 23.674 C 158.719 23.169 158.701 22.643 158.704 22.097 L 158.722 18.787 C 158.725 18.21 158.752 17.659 158.801 17.133 C 158.85 16.607 158.927 16.123 159.033 15.679 C 159.17 15.102 159.361 14.597 159.606 14.164 C 159.85 13.731 160.148 13.37 160.501 13.082 C 160.759 12.886 161.051 12.736 161.377 12.633 C 161.702 12.53 162.066 12.478 162.468 12.478 C 162.89 12.478 163.274 12.535 163.619 12.649 C 163.964 12.762 164.275 12.922 164.552 13.128 C 164.901 13.406 165.203 13.764 165.458 14.203 C 165.714 14.641 165.917 15.138 166.069 15.695 C 166.19 16.138 166.278 16.62 166.332 17.141 C 166.385 17.661 166.411 18.21 166.408 18.787 Z M 187.937 21.834 L 187.956 18.401 L 178.709 18.401 L 178.739 12.726 L 189.502 12.726 L 189.521 9.185 L 174.398 9.185 L 174.276 31.699 L 189.446 31.699 L 189.465 28.189 L 178.656 28.189 L 178.69 21.834 L 187.937 21.834 Z M 204.754 25.823 C 204.752 26.225 204.668 26.594 204.501 26.929 C 204.334 27.264 204.095 27.55 203.785 27.787 C 203.474 28.024 203.094 28.21 202.645 28.344 C 202.196 28.478 201.683 28.545 201.106 28.545 C 200.456 28.545 199.861 28.473 199.321 28.328 C 198.78 28.184 198.32 27.957 197.94 27.648 C 197.55 27.339 197.248 26.942 197.034 26.457 C 196.821 25.973 196.705 25.39 196.688 24.71 L 192.42 24.71 C 192.414 25.875 192.633 26.89 193.076 27.756 C 193.52 28.622 194.127 29.375 194.897 30.014 C 195.708 30.663 196.661 31.155 197.757 31.49 C 198.853 31.826 199.963 31.993 201.087 31.993 C 202.231 31.993 203.289 31.856 204.259 31.583 C 205.23 31.31 206.067 30.905 206.771 30.369 C 207.475 29.844 208.027 29.197 208.428 28.429 C 208.829 27.661 209.032 26.782 209.038 25.792 C 209.044 24.648 208.787 23.638 208.266 22.761 C 207.744 21.885 207.042 21.117 206.159 20.457 C 205.574 20.055 204.932 19.7 204.232 19.391 C 203.533 19.081 202.797 18.818 202.025 18.602 C 201.305 18.406 200.659 18.195 200.088 17.968 C 199.517 17.741 199.031 17.489 198.631 17.21 C 198.23 16.942 197.925 16.638 197.716 16.298 C 197.506 15.958 197.402 15.576 197.405 15.154 C 197.407 14.752 197.489 14.378 197.65 14.032 C 197.812 13.687 198.048 13.386 198.359 13.128 C 198.67 12.88 199.049 12.687 199.499 12.548 C 199.948 12.409 200.461 12.339 201.038 12.339 C 201.667 12.339 202.216 12.424 202.684 12.594 C 203.152 12.765 203.545 12.999 203.863 13.298 C 204.171 13.607 204.403 13.973 204.561 14.396 C 204.718 14.819 204.806 15.282 204.824 15.788 L 209.061 15.788 C 209.066 14.777 208.875 13.85 208.488 13.004 C 208.101 12.159 207.559 11.427 206.861 10.808 C 206.163 10.2 205.328 9.726 204.356 9.386 C 203.383 9.046 202.31 8.876 201.134 8.876 C 200 8.876 198.948 9.022 197.977 9.316 C 197.007 9.61 196.164 10.03 195.45 10.576 C 194.736 11.123 194.176 11.783 193.769 12.556 C 193.363 13.329 193.157 14.19 193.152 15.138 C 193.148 15.963 193.296 16.726 193.596 17.427 C 193.896 18.128 194.344 18.767 194.939 19.344 C 195.534 19.921 196.301 20.452 197.242 20.937 C 198.183 21.421 199.276 21.834 200.521 22.174 C 201.324 22.39 201.996 22.625 202.536 22.877 C 203.075 23.13 203.515 23.406 203.853 23.705 C 204.182 24.014 204.414 24.344 204.552 24.694 C 204.689 25.045 204.756 25.421 204.754 25.823 Z" style="white-space: pre; fill: rgb(255, 255, 255);" transform="matrix(0.999985, -0.005399, 0.005399, 0.999985, -0.108819, 0.573578)"/>
</svg>